{
  "asset": {
    "version": "2.0",
    "generator": "THREE.GLTFExporter r180"
  },
  "scenes": [
    {
      "name": "Scene",
      "nodes": [
        0
      ]
    }
  ],
  "scene": 0,
  "nodes": [
    {
      "name": "gearbox5st.glb",
      "children": [
        1,
        2,
        3,
        4
      ]
    },
    {
      "matrix": [
        0.8614400356466203,
        1.1102230246251565e-16,
        0.5078592964445461,
        0,
        0.3374190726039203,
        0.7473818018964666,
        -0.5723362749617579,
        0,
        -0.37956479608659666,
        0.6643947939245088,
        0.6438246060673276,
        0,
        -44.039857058897894,
        523.2651693508644,
        461.97046710899326,
        1
      ],
      "camera": 0
    },
    {},
    {
      "name": "light_0",
      "extensions": {
        "KHR_lights_punctual": {
          "light": 0
        }
      }
    },
    {
      "name": "model",
      "extras": {
        "name": "model"
      },
      "children": [
        5
      ]
    },
    {
      "name": "gb_5glb",
      "extras": {
        "name": "gb_5.glb"
      },
      "children": [
        6
      ]
    },
    {
      "name": "Node0",
      "extras": {
        "name": "Node0"
      },
      "children": [
        7
      ]
    },
    {
      "name": "part1",
      "extras": {
        "name": "Node1",
        "povray": {
          "material": "M_orange_gloss"
        }
      },
      "mesh": 0,
      "children": [
        8,
        9,
        10,
        11,
        12,
        13,
        14,
        15,
        16
      ]
    },
    {
      "name": "part2",
      "extras": {
        "name": "Node2",
        "povray": {
          "material": "M_orange_gloss"
        }
      },
      "mesh": 1
    },
    {
      "name": "part3",
      "extras": {
        "name": "Node3",
        "povray": {
          "material": "M_orange_gloss"
        }
      },
      "mesh": 2
    },
    {
      "name": "part4",
      "extras": {
        "name": "Node4",
        "povray": {
          "material": "M_orange_gloss"
        }
      },
      "mesh": 3
    },
    {
      "name": "part5",
      "extras": {
        "name": "Node5",
        "povray": {
          "material": "M_orange_gloss"
        }
      },
      "mesh": 4
    },
    {
      "name": "part6",
      "extras": {
        "name": "Node6",
        "povray": {
          "material": "M_orange_gloss"
        }
      },
      "mesh": 5
    },
    {
      "name": "part7",
      "extras": {
        "name": "Node7",
        "povray": {
          "material": "M_orange_gloss"
        }
      },
      "mesh": 6
    },
    {
      "name": "part8",
      "extras": {
        "name": "Node8",
        "povray": {
          "material": "M_orange_gloss"
        }
      },
      "mesh": 7
    },
    {
      "name": "part9",
      "extras": {
        "name": "Node9",
        "povray": {
          "material": "M_yellow_green_gloss"
        }
      },
      "mesh": 8
    },
    {
      "name": "part10",
      "extras": {
        "name": "Node10",
        "povray": {
          "material": "M_yellow_green_gloss"
        }
      },
      "mesh": 9
    }
  ],
  "cameras": [
    {
      "type": "perspective",
      "perspective": {
        "aspectRatio": 1.638608305274972,
        "yfov": 0.8726646259971648,
        "zfar": 8000,
        "znear": 0.1
      }
    }
  ],
  "extensions": {
    "KHR_lights_punctual": {
      "lights": [
        {
          "name": "light_0",
          "color": [
            1,
            1,
            1
          ],
          "intensity": 2,
          "type": "point",
          "range": 1
        }
      ]
    }
  },
  "bufferViews": [
    {
      "buffer": 0,
      "byteOffset": 0,
      "byteLength": 10608,
      "target": 34962,
      "byteStride": 12
    },
    {
      "buffer": 0,
      "byteOffset": 10608,
      "byteLength": 10608,
      "target": 34962,
      "byteStride": 12
    },
    {
      "buffer": 0,
      "byteOffset": 21216,
      "byteLength": 8592,
      "target": 34963
    },
    {
      "buffer": 0,
      "byteOffset": 29808,
      "byteLength": 11376,
      "target": 34962,
      "byteStride": 12
    },
    {
      "buffer": 0,
      "byteOffset": 41184,
      "byteLength": 11376,
      "target": 34962,
      "byteStride": 12
    },
    {
      "buffer": 0,
      "byteOffset": 52560,
      "byteLength": 8868,
      "target": 34963
    },
    {
      "buffer": 0,
      "byteOffset": 61428,
      "byteLength": 10416,
      "target": 34962,
      "byteStride": 12
    },
    {
      "buffer": 0,
      "byteOffset": 71844,
      "byteLength": 10416,
      "target": 34962,
      "byteStride": 12
    },
    {
      "buffer": 0,
      "byteOffset": 82260,
      "byteLength": 8496,
      "target": 34963
    },
    {
      "buffer": 0,
      "byteOffset": 90756,
      "byteLength": 9240,
      "target": 34962,
      "byteStride": 12
    },
    {
      "buffer": 0,
      "byteOffset": 99996,
      "byteLength": 9240,
      "target": 34962,
      "byteStride": 12
    },
    {
      "buffer": 0,
      "byteOffset": 109236,
      "byteLength": 7224,
      "target": 34963
    },
    {
      "buffer": 0,
      "byteOffset": 116460,
      "byteLength": 12288,
      "target": 34962,
      "byteStride": 12
    },
    {
      "buffer": 0,
      "byteOffset": 128748,
      "byteLength": 12288,
      "target": 34962,
      "byteStride": 12
    },
    {
      "buffer": 0,
      "byteOffset": 141036,
      "byteLength": 9492,
      "target": 34963
    },
    {
      "buffer": 0,
      "byteOffset": 150528,
      "byteLength": 6528,
      "target": 34962,
      "byteStride": 12
    },
    {
      "buffer": 0,
      "byteOffset": 157056,
      "byteLength": 6528,
      "target": 34962,
      "byteStride": 12
    },
    {
      "buffer": 0,
      "byteOffset": 163584,
      "byteLength": 6360,
      "target": 34963
    },
    {
      "buffer": 0,
      "byteOffset": 169944,
      "byteLength": 4668,
      "target": 34962,
      "byteStride": 12
    },
    {
      "buffer": 0,
      "byteOffset": 174612,
      "byteLength": 4668,
      "target": 34962,
      "byteStride": 12
    },
    {
      "buffer": 0,
      "byteOffset": 179280,
      "byteLength": 3372,
      "target": 34963
    },
    {
      "buffer": 0,
      "byteOffset": 182652,
      "byteLength": 59640,
      "target": 34962,
      "byteStride": 12
    },
    {
      "buffer": 0,
      "byteOffset": 242292,
      "byteLength": 59640,
      "target": 34962,
      "byteStride": 12
    },
    {
      "buffer": 0,
      "byteOffset": 301932,
      "byteLength": 59496,
      "target": 34963
    },
    {
      "buffer": 0,
      "byteOffset": 361428,
      "byteLength": 244512,
      "target": 34962,
      "byteStride": 12
    },
    {
      "buffer": 0,
      "byteOffset": 605940,
      "byteLength": 244512,
      "target": 34962,
      "byteStride": 12
    },
    {
      "buffer": 0,
      "byteOffset": 850452,
      "byteLength": 244512,
      "target": 34963
    },
    {
      "buffer": 0,
      "byteOffset": 1094964,
      "byteLength": 13056,
      "target": 34962,
      "byteStride": 12
    },
    {
      "buffer": 0,
      "byteOffset": 1108020,
      "byteLength": 13056,
      "target": 34962,
      "byteStride": 12
    },
    {
      "buffer": 0,
      "byteOffset": 1121076,
      "byteLength": 13056,
      "target": 34963
    }
  ],
  "buffers": [
    {
      "byteLength": 1134132,
      "uri": "data:application/octet-stream;base64,"
    }
  ],
  "accessors": [
    {
      "bufferView": 0,
      "componentType": 5126,
      "count": 884,
      "max": [
        147.4544219970703,
        64.46624755859375,
        -141
      ],
      "min": [
        18.545581817626953,
        -64.46624755859375,
        -287.7334899902344
      ],
      "type": "VEC3"
    },
    {
      "bufferView": 1,
      "componentType": 5126,
      "count": 884,
      "max": [
        0.9995216727256775,
        0.9967186450958252,
        0.9989442229270935
      ],
      "min": [
        -0.9962877035140991,
        -0.9968544244766235,
        -1
      ],
      "type": "VEC3"
    },
    {
      "bufferView": 2,
      "componentType": 5123,
      "count": 4296,
      "max": [
        883
      ],
      "min": [
        0
      ],
      "type": "SCALAR"
    },
    {
      "bufferView": 3,
      "componentType": 5126,
      "count": 948,
      "max": [
        833.1182861328125,
        141.1208038330078,
        -123.5
      ],
      "min": [
        383.36895751953125,
        -141.0314483642578,
        -307.5
      ],
      "type": "VEC3"
    },
    {
      "bufferView": 4,
      "componentType": 5126,
      "count": 948,
      "max": [
        0.9995534420013428,
        0.9989916682243347,
        1
      ],
      "min": [
        -0.9996283650398254,
        -0.9945250749588013,
        -1
      ],
      "type": "VEC3"
    },
    {
      "bufferView": 5,
      "componentType": 5123,
      "count": 4434,
      "max": [
        947
      ],
      "min": [
        0
      ],
      "type": "SCALAR"
    },
    {
      "bufferView": 6,
      "componentType": 5126,
      "count": 868,
      "max": [
        440.1035461425781,
        104.10862731933594,
        -124
      ],
      "min": [
        150.12423706054688,
        -104.1035385131836,
        -287.0769958496094
      ],
      "type": "VEC3"
    },
    {
      "bufferView": 7,
      "componentType": 5126,
      "count": 868,
      "max": [
        0.9992632865905762,
        0.9976034760475159,
        1
      ],
      "min": [
        -0.9996654391288757,
        -0.9976034760475159,
        -0.9995824098587036
      ],
      "type": "VEC3"
    },
    {
      "bufferView": 8,
      "componentType": 5123,
      "count": 4248,
      "max": [
        867
      ],
      "min": [
        0
      ],
      "type": "SCALAR"
    },
    {
      "bufferView": 9,
      "componentType": 5126,
      "count": 770,
      "max": [
        147.44676208496094,
        64.46624755859375,
        -141
      ],
      "min": [
        -21.50691795349121,
        -64.46529388427734,
        -173
      ],
      "type": "VEC3"
    },
    {
      "bufferView": 10,
      "componentType": 5126,
      "count": 770,
      "max": [
        0.9976223111152649,
        0.9986556768417358,
        1
      ],
      "min": [
        -0.9988108277320862,
        -0.9990416169166565,
        -0.980295717716217
      ],
      "type": "VEC3"
    },
    {
      "bufferView": 11,
      "componentType": 5123,
      "count": 3612,
      "max": [
        769
      ],
      "min": [
        0
      ],
      "type": "SCALAR"
    },
    {
      "bufferView": 12,
      "componentType": 5126,
      "count": 1024,
      "max": [
        618.5932006835938,
        117.63103485107422,
        -124
      ],
      "min": [
        231.92176818847656,
        -117.59317016601562,
        -307.5
      ],
      "type": "VEC3"
    },
    {
      "bufferView": 13,
      "componentType": 5126,
      "count": 1024,
      "max": [
        0.9960958957672119,
        0.998898983001709,
        1
      ],
      "min": [
        -0.9952976703643799,
        -0.9988830089569092,
        -1
      ],
      "type": "VEC3"
    },
    {
      "bufferView": 14,
      "componentType": 5123,
      "count": 4746,
      "max": [
        1023
      ],
      "min": [
        0
      ],
      "type": "SCALAR"
    },
    {
      "bufferView": 15,
      "componentType": 5126,
      "count": 544,
      "max": [
        278.29180908203125,
        84.29181671142578,
        -248.92300415039062
      ],
      "min": [
        109.70818328857422,
        -84.29181671142578,
        -287.0769958496094
      ],
      "type": "VEC3"
    },
    {
      "bufferView": 16,
      "componentType": 5126,
      "count": 544,
      "max": [
        0.9965370893478394,
        0.9961162805557251,
        1
      ],
      "min": [
        -0.9965370297431946,
        -0.9965370893478394,
        -1
      ],
      "type": "VEC3"
    },
    {
      "bufferView": 17,
      "componentType": 5123,
      "count": 3180,
      "max": [
        543
      ],
      "min": [
        0
      ],
      "type": "SCALAR"
    },
    {
      "bufferView": 18,
      "componentType": 5126,
      "count": 389,
      "max": [
        833.1207885742188,
        141.1208038330078,
        -123.5
      ],
      "min": [
        550.9187622070312,
        -141.058837890625,
        -218.5
      ],
      "type": "VEC3"
    },
    {
      "bufferView": 19,
      "componentType": 5126,
      "count": 389,
      "max": [
        0.9998847246170044,
        0.9988752007484436,
        0.154017835855484
      ],
      "min": [
        -0.9970963597297668,
        -0.9959424734115601,
        -1
      ],
      "type": "VEC3"
    },
    {
      "bufferView": 20,
      "componentType": 5123,
      "count": 1686,
      "max": [
        388
      ],
      "min": [
        0
      ],
      "type": "SCALAR"
    },
    {
      "bufferView": 21,
      "componentType": 5126,
      "count": 4970,
      "max": [
        752,
        59.99753952026367,
        7
      ],
      "min": [
        -17.992652893066406,
        -59.99156188964844,
        -366
      ],
      "type": "VEC3"
    },
    {
      "bufferView": 22,
      "componentType": 5126,
      "count": 4970,
      "max": [
        0.9998270869255066,
        0.9999943375587463,
        0.9998936653137207
      ],
      "min": [
        -0.9998155236244202,
        -0.9999996423721313,
        -0.9999023079872131
      ],
      "type": "VEC3"
    },
    {
      "bufferView": 23,
      "componentType": 5123,
      "count": 29748,
      "max": [
        4969
      ],
      "min": [
        0
      ],
      "type": "SCALAR"
    },
    {
      "bufferView": 24,
      "componentType": 5126,
      "count": 20376,
      "max": [
        782,
        89.99357604980469,
        -65.5
      ],
      "min": [
        -35.99418258666992,
        -89.99197387695312,
        -366.5
      ],
      "type": "VEC3"
    },
    {
      "bufferView": 25,
      "componentType": 5126,
      "count": 20376,
      "max": [
        0.9839781522750854,
        0.9834450483322144,
        0.9813499450683594
      ],
      "min": [
        -0.9842916131019592,
        -0.9837680459022522,
        -0.981745183467865
      ],
      "type": "VEC3"
    },
    {
      "bufferView": 26,
      "componentType": 5123,
      "count": 122256,
      "max": [
        20375
      ],
      "min": [
        0
      ],
      "type": "SCALAR"
    },
    {
      "bufferView": 27,
      "componentType": 5126,
      "count": 1088,
      "max": [
        747.125,
        55.12291717529297,
        7
      ],
      "min": [
        -18.37039566040039,
        -55.121578216552734,
        -55
      ],
      "type": "VEC3"
    },
    {
      "bufferView": 28,
      "componentType": 5126,
      "count": 1088,
      "max": [
        0.9999054670333862,
        0.9999366998672485,
        0.0761653333902359
      ],
      "min": [
        -0.9998929500579834,
        -0.9998237490653992,
        -0.0747637003660202
      ],
      "type": "VEC3"
    },
    {
      "bufferView": 29,
      "componentType": 5123,
      "count": 6528,
      "max": [
        1087
      ],
      "min": [
        0
      ],
      "type": "SCALAR"
    }
  ],
  "materials": [
    {
      "pbrMetallicRoughness": {
        "metallicFactor": 0.5,
        "roughnessFactor": 0.5
      },
      "doubleSided": true
    },
    {
      "pbrMetallicRoughness": {
        "metallicFactor": 0.5,
        "roughnessFactor": 0.5
      },
      "doubleSided": true
    },
    {
      "pbrMetallicRoughness": {
        "metallicFactor": 0.5,
        "roughnessFactor": 0.5
      },
      "doubleSided": true
    },
    {
      "pbrMetallicRoughness": {
        "metallicFactor": 0.5,
        "roughnessFactor": 0.5
      },
      "doubleSided": true
    },
    {
      "pbrMetallicRoughness": {
        "metallicFactor": 0.5,
        "roughnessFactor": 0.5
      },
      "doubleSided": true
    },
    {
      "pbrMetallicRoughness": {
        "metallicFactor": 0.5,
        "roughnessFactor": 0.5
      },
      "doubleSided": true
    },
    {
      "pbrMetallicRoughness": {
        "metallicFactor": 0.5,
        "roughnessFactor": 0.5
      },
      "doubleSided": true
    },
    {
      "pbrMetallicRoughness": {
        "metallicFactor": 0.5,
        "roughnessFactor": 0.5
      },
      "doubleSided": true
    },
    {
      "pbrMetallicRoughness": {
        "metallicFactor": 0.5,
        "roughnessFactor": 0.5
      },
      "doubleSided": true
    },
    {
      "pbrMetallicRoughness": {
        "metallicFactor": 0.5,
        "roughnessFactor": 0.5
      },
      "doubleSided": true
    }
  ],
  "meshes": [
    {
      "primitives": [
        {
          "mode": 4,
          "attributes": {
            "POSITION": 0,
            "NORMAL": 1
          },
          "indices": 2,
          "material": 0
        }
      ]
    },
    {
      "primitives": [
        {
          "mode": 4,
          "attributes": {
            "POSITION": 3,
            "NORMAL": 4
          },
          "indices": 5,
          "material": 1
        }
      ]
    },
    {
      "primitives": [
        {
          "mode": 4,
          "attributes": {
            "POSITION": 6,
            "NORMAL": 7
          },
          "indices": 8,
          "material": 2
        }
      ]
    },
    {
      "primitives": [
        {
          "mode": 4,
          "attributes": {
            "POSITION": 9,
            "NORMAL": 10
          },
          "indices": 11,
          "material": 3
        }
      ]
    },
    {
      "primitives": [
        {
          "mode": 4,
          "attributes": {
            "POSITION": 12,
            "NORMAL": 13
          },
          "indices": 14,
          "material": 4
        }
      ]
    },
    {
      "primitives": [
        {
          "mode": 4,
          "attributes": {
            "POSITION": 15,
            "NORMAL": 16
          },
          "indices": 17,
          "material": 5
        }
      ]
    },
    {
      "primitives": [
        {
          "mode": 4,
          "attributes": {
            "POSITION": 18,
            "NORMAL": 19
          },
          "indices": 20,
          "material": 6
        }
      ]
    },
    {
      "primitives": [
        {
          "mode": 4,
          "attributes": {
            "POSITION": 21,
            "NORMAL": 22
          },
          "indices": 23,
          "material": 7
        }
      ]
    },
    {
      "primitives": [
        {
          "mode": 4,
          "attributes": {
            "POSITION": 24,
            "NORMAL": 25
          },
          "indices": 26,
          "material": 8
        }
      ]
    },
    {
      "primitives": [
        {
          "mode": 4,
          "attributes": {
            "POSITION": 27,
            "NORMAL": 28
          },
          "indices": 29,
          "material": 9
        }
      ]
    }
  ],
  "extensionsUsed": [
    "KHR_lights_punctual"
  ]
}